STARTFONT 2.1
FONT -FontForge-Titillium Web Black-Black-R-Normal--24-240-75-75-P-145-ISO10646-1
SIZE 24 75 75
FONTBOUNDINGBOX 22 20 0 -4
COMMENT "Generated by fontforge, http://fontforge.sourceforge.net"
COMMENT "Copyright (c) 2009-2011 by Accademia di Belle Arti di Urbino and students of MA course of Visual design. Some rights reserved."
STARTPROPERTIES 38
FOUNDRY "FontForge"
FAMILY_NAME "Titillium Web Black"
WEIGHT_NAME "Black"
SLANT "R"
SETWIDTH_NAME "Normal"
ADD_STYLE_NAME ""
PIXEL_SIZE 24
POINT_SIZE 240
RESOLUTION_X 75
RESOLUTION_Y 75
SPACING "P"
AVERAGE_WIDTH 145
CHARSET_REGISTRY "ISO10646"
CHARSET_ENCODING "1"
FONTNAME_REGISTRY ""
CHARSET_COLLECTIONS "ISO8859-2 ISO8859-9 ISO8859-4 ISO10646-1"
FONT_NAME "TitilliumWeb-Black"
FACE_NAME "Titillium Web Black"
COPYRIGHT "Copyright (c) 2009-2011 by Accademia di Belle Arti di Urbino and students of MA course of Visual design. Some rights reserved."
FONT_VERSION "1.002;PS 35.000;hotconv 1.0.70;makeotf.lib2.5.55311"
FONT_ASCENT 19
FONT_DESCENT 5
UNDERLINE_POSITION -3
UNDERLINE_THICKNESS 4
CAP_HEIGHT 15
RAW_ASCENT 800
RAW_DESCENT 200
RELATIVE_WEIGHT 90
RELATIVE_SETWIDTH 50
SUPERSCRIPT_X 0
SUPERSCRIPT_Y 8
SUPERSCRIPT_SIZE 14
SUBSCRIPT_X 0
SUBSCRIPT_Y 1
SUBSCRIPT_SIZE 14
FIGURE_WIDTH -1
AVG_LOWERCASE_WIDTH 240
AVG_UPPERCASE_WIDTH 220
ENDPROPERTIES
CHARS 26
STARTCHAR A
ENCODING 65
SWIDTH 639 0
DWIDTH 15 0
BBX 15 16 0 0
BITMAP
1FF0
1FF0
1FF0
1FF8
3EF8
3EF8
3EF8
3EFC
3E7C
7E7C
7FFC
7FFC
7FFE
FFFE
FC7E
F83E
ENDCHAR
STARTCHAR B
ENCODING 66
SWIDTH 607 0
DWIDTH 15 0
BBX 13 16 1 0
BITMAP
FFE0
FFF0
FFF8
FFF8
F8F8
F8F8
FFF0
FFF0
FFF0
FFF8
F8F8
F8F8
FFF8
FFF8
FFF0
FFC0
ENDCHAR
STARTCHAR C
ENCODING 67
SWIDTH 533 0
DWIDTH 13 0
BBX 12 16 0 0
BITMAP
1FF0
3FF0
7FF0
7FF0
7E10
7C00
FC00
FC00
FC00
FC00
7C00
7F10
7FF0
7FF0
3FF0
1FF0
ENDCHAR
STARTCHAR D
ENCODING 68
SWIDTH 654 0
DWIDTH 16 0
BBX 14 16 1 0
BITMAP
FFC0
FFF0
FFF8
FFFC
F9FC
F8FC
F87C
F87C
F87C
F87C
F8FC
FFFC
FFF8
FFF8
FFF0
FFC0
ENDCHAR
STARTCHAR E
ENCODING 69
SWIDTH 549 0
DWIDTH 13 0
BBX 12 16 1 0
BITMAP
FFF0
FFF0
FFF0
FFF0
F800
F800
FFC0
FFC0
FFC0
FFC0
F800
F800
FFF0
FFF0
FFF0
FFF0
ENDCHAR
STARTCHAR F
ENCODING 70
SWIDTH 521 0
DWIDTH 13 0
BBX 11 16 1 0
BITMAP
FFE0
FFE0
FFE0
FFE0
F800
F800
F800
FFC0
FFC0
FFC0
FFC0
FFC0
F800
F800
F800
F800
ENDCHAR
STARTCHAR G
ENCODING 71
SWIDTH 619 0
DWIDTH 15 0
BBX 14 16 0 0
BITMAP
1FFC
3FFC
7FFC
7FFC
7E0C
7C00
FC00
FCFC
FCFC
FCFC
7C7C
7E7C
7FFC
7FFC
3FFC
0FFC
ENDCHAR
STARTCHAR H
ENCODING 72
SWIDTH 655 0
DWIDTH 16 0
BBX 14 16 1 0
BITMAP
F8FC
F8FC
F8FC
F8FC
F8FC
F8FC
FFFC
FFFC
FFFC
FFFC
F8FC
F8FC
F8FC
F8FC
F8FC
F8FC
ENDCHAR
STARTCHAR I
ENCODING 73
SWIDTH 292 0
DWIDTH 7 0
BBX 5 16 1 0
BITMAP
F8
F8
F8
F8
F8
F8
F8
F8
F8
F8
F8
F8
F8
F8
F8
F8
ENDCHAR
STARTCHAR J
ENCODING 74
SWIDTH 321 0
DWIDTH 8 0
BBX 7 16 0 0
BITMAP
7E
7E
7E
7E
7E
7E
7E
7E
7E
7E
7E
7E
FE
FE
FC
FC
ENDCHAR
STARTCHAR K
ENCODING 75
SWIDTH 609 0
DWIDTH 15 0
BBX 14 16 1 0
BITMAP
F8FC
F8F8
F9F8
F9F0
F9F0
FBF0
FFE0
FFE0
FFE0
FFF0
FFF0
F9F0
F9F8
F9F8
F8F8
F8FC
ENDCHAR
STARTCHAR L
ENCODING 76
SWIDTH 489 0
DWIDTH 12 0
BBX 11 16 1 0
BITMAP
F800
F800
F800
F800
F800
F800
F800
F800
F800
F800
F800
FFE0
FFE0
FFE0
FFE0
FFE0
ENDCHAR
STARTCHAR M
ENCODING 77
SWIDTH 855 0
DWIDTH 21 0
BBX 19 16 1 0
BITMAP
FF3FE0
FF3FE0
FFBFE0
FFBFE0
FFFFE0
FFFFE0
FFFFE0
FFFFE0
FBFFE0
FBFFE0
FBFFE0
FBF7E0
FBF7E0
F9F7E0
F9F7E0
F9F7E0
ENDCHAR
STARTCHAR N
ENCODING 78
SWIDTH 688 0
DWIDTH 17 0
BBX 15 16 1 0
BITMAP
FC7E
FC7E
FE7E
FE7E
FF7E
FFFE
FFFE
FFFE
FFFE
FBFE
FBFE
F9FE
F9FE
F8FE
F8FE
F87E
ENDCHAR
STARTCHAR O
ENCODING 79
SWIDTH 670 0
DWIDTH 16 0
BBX 16 16 0 0
BITMAP
0FF0
3FFC
3FFE
7FFE
7E7E
7C3F
FC3F
FC3F
FC3F
FC3F
7C3F
7E7E
7FFE
3FFC
3FFC
0FF0
ENDCHAR
STARTCHAR P
ENCODING 80
SWIDTH 612 0
DWIDTH 15 0
BBX 13 16 1 0
BITMAP
FFC0
FFF0
FFF8
FFF8
F9F8
F8F8
F8F8
F9F8
FFF8
FFF8
FFF0
FFE0
FE00
F800
F800
F800
ENDCHAR
STARTCHAR Q
ENCODING 81
SWIDTH 667 0
DWIDTH 16 0
BBX 16 20 0 -4
BITMAP
0FF0
3FFC
7FFC
7FFE
7E7E
7C3E
FC3F
FC3F
FC3F
FC3F
7C3E
7E7E
7FFE
3FFC
3FFC
0FFC
007C
007E
003C
0010
ENDCHAR
STARTCHAR R
ENCODING 82
SWIDTH 617 0
DWIDTH 15 0
BBX 13 16 1 0
BITMAP
FFE0
FFF0
FFF8
FFF8
F9F8
F8F8
F8F8
FFF8
FFF8
FFF8
FFF0
FFF0
F9F0
F9F8
F9F8
F9F8
ENDCHAR
STARTCHAR S
ENCODING 83
SWIDTH 578 0
DWIDTH 14 0
BBX 14 16 0 0
BITMAP
3FF8
7FF8
7FF8
7FF8
FC08
FF00
FFE0
7FF8
7FF8
3FFC
03FC
60FC
7FF8
7FF8
7FF8
FFE0
ENDCHAR
STARTCHAR T
ENCODING 84
SWIDTH 519 0
DWIDTH 12 0
BBX 12 16 0 0
BITMAP
FFF0
FFF0
FFF0
FFF0
0F80
0F80
0F80
0F80
0F80
0F80
0F80
0F80
0F80
0F80
0F80
0F80
ENDCHAR
STARTCHAR U
ENCODING 85
SWIDTH 641 0
DWIDTH 15 0
BBX 14 16 1 0
BITMAP
F8FC
F8FC
F8FC
F8FC
F8FC
F8FC
F8FC
F8FC
F8FC
F8FC
F8FC
FCFC
FFF8
FFF8
7FF8
3FE0
ENDCHAR
STARTCHAR V
ENCODING 86
SWIDTH 598 0
DWIDTH 14 0
BBX 14 16 0 0
BITMAP
FCFC
FCFC
FCFC
7CFC
7CFC
7CF8
7EF8
7EF8
3EF8
3EF8
3FF0
3FF0
3FF0
1FF0
1FF0
1FE0
ENDCHAR
STARTCHAR W
ENCODING 87
SWIDTH 915 0
DWIDTH 22 0
BBX 22 16 0 0
BITMAP
FCFCFC
FCFCFC
FCFCF8
7CFCF8
7DFEF8
7DFEF8
7DFEF8
7DFEF8
7DFEF8
7DFEF8
7FDFF8
3FDFF0
3FCFF0
3FCFF0
3FCFF0
3FCFF0
ENDCHAR
STARTCHAR X
ENCODING 88
SWIDTH 583 0
DWIDTH 14 0
BBX 14 16 0 0
BITMAP
FC7C
FCFC
7CF8
7FF8
3FF0
3FF0
3FE0
1FE0
1FE0
1FF0
3FF0
3FF0
7FF8
7CF8
FCF8
FCFC
ENDCHAR
STARTCHAR Y
ENCODING 89
SWIDTH 590 0
DWIDTH 14 0
BBX 15 16 0 0
BITMAP
FCFE
FCFC
7CF8
7FF8
3FF8
3FF0
3FF0
1FE0
1FE0
0FC0
0FC0
0FC0
0FC0
0FC0
0FC0
0FC0
ENDCHAR
STARTCHAR Z
ENCODING 90
SWIDTH 569 0
DWIDTH 14 0
BBX 13 16 0 0
BITMAP
FFF8
FFF8
FFF8
FFF8
03F8
07F0
0FF0
0FE0
1FC0
3F80
7F00
7FF8
FFF8
FFF8
FFF8
FFF8
ENDCHAR
ENDFONT
